<svg xmlns="http://www.w3.org/2000/svg" viewBox="0 0 920 740" width="920" height="740" font-family="Helvetica, Arial, sans-serif">
  <defs>
    <style><![CDATA[
      .pill { transition: transform .25s ease, filter .25s ease; transform-box: fill-box; transform-origin: center; }
      .pill:hover { transform: translateY(-2px); filter: drop-shadow(0 4px 8px rgba(124,63,181,0.3)); }
    ]]></style>
    <linearGradient id="shine" x1="0" y1="0" x2="1" y2="0">
      <stop offset="0" stop-color="#ffffff" stop-opacity="0"/>
      <stop offset="0.5" stop-color="#ffffff" stop-opacity="0.85"/>
      <stop offset="1" stop-color="#ffffff" stop-opacity="0"/>
    </linearGradient>
    <clipPath id="barClip1"><rect x="570" y="464" width="272" height="8" rx="4"/></clipPath>
    <clipPath id="barClip2"><rect x="570" y="510" width="272" height="8" rx="4"/></clipPath>
    <clipPath id="barClip3"><rect x="570" y="556" width="272" height="8" rx="4"/></clipPath>
         
    <linearGradient id="card" x1="0" y1="0" x2="0" y2="1"><stop offset="0" stop-color="#fdfbff"></stop><stop offset="1" stop-color="#f7f0fd"></stop></linearGradient>
    <linearGradient id="header" x1="0" y1="0" x2="1" y2="1"><stop offset="0" stop-color="#c9a4e8"></stop><stop offset="0.5" stop-color="#ab7ce0"></stop><stop offset="1" stop-color="#d0b0ee"></stop></linearGradient>
    <linearGradient id="bow" x1="0" y1="0" x2="0" y2="1"><stop offset="0" stop-color="#fbf5ff"></stop><stop offset="1" stop-color="#cfaef0"></stop></linearGradient>
    <linearGradient id="bar" x1="0" y1="0" x2="1" y2="0"><stop offset="0" stop-color="#9a5fd6"></stop><stop offset="1" stop-color="#c8a7ee"></stop></linearGradient>
    <pattern id="scallop" width="26" height="26" patternUnits="userSpaceOnUse" x="30" y="135"><circle cx="13" cy="13" r="13" fill="#fdfbff"></circle></pattern>
    <filter id="cardShadow" x="-20%" y="-10%" width="140%" height="130%"><feDropShadow dx="0" dy="24" stdDeviation="30" flood-color="#7c3fb5" flood-opacity="0.28"></feDropShadow></filter>
    <clipPath id="cardClip"><rect x="30" y="30" width="860" height="680" rx="34"></rect></clipPath>
  </defs>
  <rect x="30" y="30" width="860" height="680" rx="34" fill="url(#card)" filter="url(#cardShadow)"></rect>
  <g clip-path="url(#cardClip)">
    <rect x="30" y="30" width="860" height="118" fill="url(#header)"></rect>
    <circle cx="80" cy="60" r="46" fill="#ffffff" opacity="0.13"></circle>
    <circle cx="820" cy="150" r="40" fill="#ffffff" opacity="0.10"></circle>
    <text x="70" y="82" font-size="17" font-style="italic" fill="#ffffff" opacity="0.9" letter-spacing="1.5">✦<animate attributeName="opacity" values="0.55;1;0.55" dur="5s" repeatCount="indefinite"/></text>
    <text x="850" y="82" font-size="17" font-style="italic" fill="#ffffff" opacity="0.9" text-anchor="end" letter-spacing="1.5">✦<animate attributeName="opacity" values="0.55;1;0.55" dur="6.4s" begin="1.2s" repeatCount="indefinite"/></text>
    <rect x="30" y="135" width="860" height="26" fill="url(#scallop)"></rect>
    <g transform="translate(431,40)">
      <animateTransform attributeName="transform" type="rotate" values="-7 28 5; 7 28 5; -7 28 5" dur="4s" repeatCount="indefinite" additive="sum"/>
             
      <path d="M28 19 C20 6, 4 4, 5 16 C4 28, 20 27, 28 19 Z" fill="url(#bow)" stroke="#9a6ad0" stroke-width="1.3"></path>
      <path d="M28 19 C36 6, 52 4, 51 16 C52 28, 36 27, 28 19 Z" fill="url(#bow)" stroke="#9a6ad0" stroke-width="1.3"></path>
      <path d="M26 20 C22 27, 20 33, 21 37 L27 22 Z" fill="url(#bow)" stroke="#9a6ad0" stroke-width="1.1"></path>
      <path d="M30 20 C34 27, 36 33, 35 37 L29 22 Z" fill="url(#bow)" stroke="#9a6ad0" stroke-width="1.1"></path>
      <ellipse cx="28" cy="19" rx="6" ry="7" fill="url(#bow)" stroke="#9a6ad0" stroke-width="1.3"></ellipse>
    </g>
    <text x="460" y="255" font-size="42" font-weight="700" fill="#7a3fb5" text-anchor="middle" font-family="Georgia, serif">keibored</text>
    <text x="460" y="290" font-size="15" font-style="italic" fill="#9a7bb8" text-anchor="middle" letter-spacing="0.5" font-family="Georgia, serif">✦  aspiring full-stack dev  ✦</text>
    <text x="460" y="332" font-size="14.5" fill="#6e5883" text-anchor="middle">aspiring full-stack developer crafting soft, thoughtful interfaces and the logic</text>
    <text x="460" y="356" font-size="14.5" fill="#6e5883" text-anchor="middle">behind them — learning every day, shipping with heart, one commit at a time.  </text>
    <g>
      <text x="78" y="424" font-size="19" font-weight="700" fill="#8342bd" font-family="Georgia, serif">✦ tech stack</text>
      <g font-size="12.5" fill="#8149bd" font-weight="600">
        <rect class="pill" x="78" y="442" width="118" height="34" rx="17" fill="#f2e6fb" stroke="#ddc6f2"></rect><text x="137" y="464" text-anchor="middle">TypeScript</text>
        <rect class="pill" x="206" y="442" width="86" height="34" rx="17" fill="#f2e6fb" stroke="#ddc6f2"></rect><text x="249" y="464" text-anchor="middle">React</text>
        <rect class="pill" x="302" y="442" width="94" height="34" rx="17" fill="#f2e6fb" stroke="#ddc6f2"></rect><text x="349" y="464" text-anchor="middle">Next.js</text>
        <rect class="pill" x="78" y="486" width="98" height="34" rx="17" fill="#f2e6fb" stroke="#ddc6f2"></rect><text x="127" y="508" text-anchor="middle">Node.js</text>
        <rect class="pill" x="186" y="486" width="104" height="34" rx="17" fill="#f2e6fb" stroke="#ddc6f2"></rect><text x="238" y="508" text-anchor="middle">Tailwind</text>
        <rect class="pill" x="300" y="486" width="70" height="34" rx="17" fill="#f2e6fb" stroke="#ddc6f2"></rect><text x="335" y="508" text-anchor="middle">Vite</text>
        <rect class="pill" x="78" y="530" width="66" height="34" rx="17" fill="#f2e6fb" stroke="#ddc6f2"></rect><text x="111" y="552" text-anchor="middle">Git</text>
        <rect class="pill" x="154" y="530" width="86" height="34" rx="17" fill="#f2e6fb" stroke="#ddc6f2"></rect><text x="197" y="552" text-anchor="middle">Figma</text>
      </g>
    </g>
    <g>
      <text x="570" y="424" font-size="19" font-weight="700" fill="#8342bd" font-family="Georgia, serif">✦ most used</text>
      <text id="lang1Name" x="570" y="456" font-size="12.5" font-weight="600" fill="#5f4a72">TypeScript</text>
      <text id="lang1Pct" x="842" y="456" font-size="14" fill="#a07dc0" text-anchor="end">82%</text>
      <rect x="570" y="464" width="272" height="8" rx="4" fill="#ede2f8"></rect>
      <rect id="lang1Bar" x="570" y="464" width="223" height="8" rx="4" fill="url(#bar)"><animate attributeName="width" values="0;223" dur="1.5s" calcMode="spline" keySplines="0.22 1 0.36 1" fill="freeze"/></rect>
      <g clip-path="url(#barClip1)"><rect x="510" y="464" width="60" height="8" fill="url(#shine)"><animate attributeName="x" values="510;842" dur="2.6s" begin="1.6s" repeatCount="indefinite"/></rect></g>
      <text id="lang2Name" x="570" y="502" font-size="12.5" font-weight="600" fill="#5f4a72">JavaScript</text>
      <text id="lang2Pct" x="842" y="502" font-size="14" fill="#a07dc0" text-anchor="end">74%</text>
      <rect x="570" y="510" width="272" height="8" rx="4" fill="#ede2f8"></rect>
      <rect id="lang2Bar" x="570" y="510" width="201" height="8" rx="4" fill="url(#bar)"><animate attributeName="width" values="0;201" dur="1.5s" begin="0.2s" calcMode="spline" keySplines="0.22 1 0.36 1" fill="freeze"/></rect>
      <g clip-path="url(#barClip2)"><rect x="510" y="510" width="60" height="8" fill="url(#shine)"><animate attributeName="x" values="510;842" dur="2.6s" begin="2s" repeatCount="indefinite"/></rect></g>
      <text id="lang3Name" x="570" y="548" font-size="12.5" font-weight="600" fill="#5f4a72">CSS / SCSS</text>
      <text id="lang3Pct" x="842" y="548" font-size="14" fill="#a07dc0" text-anchor="end">68%</text>
      <rect x="570" y="556" width="272" height="8" rx="4" fill="#ede2f8"></rect>
      <rect id="lang3Bar" x="570" y="556" width="185" height="8" rx="4" fill="url(#bar)"><animate attributeName="width" values="0;185" dur="1.5s" begin="0.4s" calcMode="spline" keySplines="0.22 1 0.36 1" fill="freeze"/></rect>
      <g clip-path="url(#barClip3)"><rect x="510" y="556" width="60" height="8" fill="url(#shine)"><animate attributeName="x" values="510;842" dur="2.6s" begin="2.4s" repeatCount="indefinite"/></rect></g>
    </g>
    <text x="460" y="620" font-size="14" fill="#c9b2e8" text-anchor="middle" letter-spacing="2">✦ ✦ ✦<animate attributeName="opacity" values="0.5;1;0.5" dur="3.2s" repeatCount="indefinite"/></text>
    <g font-size="12.5" font-weight="600" fill="#7a3fb5">
      <rect class="pill" x="120" y="642" width="228" height="34" rx="17" fill="#f2e6fb" stroke="#ddc6f2"></rect>
      <rect x="138" y="651" width="16" height="16" rx="4" fill="#8342bd"></rect>
      <text x="146" y="663" font-size="10" fill="#ffffff" text-anchor="middle" font-weight="700">in</text>
      <text x="164" y="664">linkedin.com/in/keisha-dumpit</text>
      <rect class="pill" x="360" y="642" width="190" height="34" rx="17" fill="#f2e6fb" stroke="#ddc6f2"></rect>
      <path transform="translate(378,651) scale(0.667)" fill="#8342bd" d="M12 2A10 10 0 0 0 8.84 21.5c.5.08.66-.22.66-.48v-1.7c-2.78.6-3.37-1.34-3.37-1.34-.45-1.16-1.11-1.47-1.11-1.47-.9-.62.07-.6.07-.6 1 .07 1.53 1.03 1.53 1.03.9 1.52 2.34 1.08 2.91.83.09-.65.35-1.09.63-1.34-2.22-.25-4.55-1.11-4.55-4.94 0-1.09.39-1.98 1.03-2.68-.1-.25-.45-1.27.1-2.65 0 0 .84-.27 2.75 1.02a9.5 9.5 0 0 1 5 0c1.91-1.29 2.75-1.02 2.75-1.02.55 1.38.2 2.4.1 2.65.64.7 1.03 1.59 1.03 2.68 0 3.84-2.34 4.69-4.57 4.94.36.31.68.92.68 1.85v2.74c0 .27.16.57.67.48A10 10 0 0 0 12 2Z"></path>
      <text x="402" y="664">github.com/keibored</text>
      <rect class="pill" x="562" y="642" width="178" height="34" rx="17" fill="#f2e6fb" stroke="#ddc6f2"></rect>
      <text x="580" y="664" fill="#b487e2">✦<animate attributeName="font-size" values="12.5;14.5;12.5" dur="2s" repeatCount="indefinite"/></text>
      <text x="596" y="664">+63 912 345 6789</text>
    </g>
  </g>
</svg>
